<?xml version="1.0" encoding="UTF-8"?>
<svg width="44px" height="44px" viewBox="0 0 44 44" version="1.1" xmlns="http://www.w3.org/2000/svg" xmlns:xlink="http://www.w3.org/1999/xlink">
    <!-- Generator: Sketch 53.2 (72643) - https://sketchapp.com -->
    <title>icons/stroke/healthcare-pharmacy/pharmacy-biulding-cvs/pharmacy-biulding-cvs--m</title>
    <desc>Created with Sketch.</desc>
    <g id="icons/stroke/healthcare-pharmacy/pharmacy-biulding-cvs/pharmacy-biulding-cvs--m" stroke="none" stroke-width="1" fill="none" fill-rule="evenodd">
        <path d="M17,39.9995117 L17,30 C17,27.2385763 19.2385763,25 22,25 C24.7614237,25 27,27.2385763 27,30 L27,39.9995117" id="Rectangle-" stroke="#000000" stroke-width="2"></path>
        <path d="M17,30 L27,30" id="Line-" stroke="#000000" stroke-width="2"></path>
        <polyline id="Rectangle-" stroke="#000000" stroke-width="2" points="32 14 42 14 42 40 2 40 2 14 2 14 12 14"></polyline>
        <rect id="Rectangle-" stroke="#000000" stroke-width="2" x="2" y="25" width="11" height="9"></rect>
        <rect id="Rectangle-" stroke="#000000" stroke-width="2" x="31" y="25" width="11" height="9"></rect>
        <path d="M12,20 L12,15 C12,9.4771525 16.4771525,5 22,5 C27.5228475,5 32,9.4771525 32,15 L32,20 L12,20 Z" id="Rectangle-" stroke="#000000" stroke-width="2"></path>
    </g>
</svg>